<svg id="visual" viewBox="0 0 600 900" width="600" height="900" xmlns="http://www.w3.org/2000/svg" xmlns:xlink="http://www.w3.org/1999/xlink" version="1.1"><rect x="0" y="0" width="600" height="900" fill="#FFF80A"></rect><defs><linearGradient id="grad1_0" x1="0%" y1="0%" x2="100%" y2="100%"><stop offset="30%" stop-color="#ff9900" stop-opacity="1"></stop><stop offset="70%" stop-color="#ff9900" stop-opacity="1"></stop></linearGradient></defs><defs><linearGradient id="grad1_1" x1="0%" y1="0%" x2="100%" y2="100%"><stop offset="30%" stop-color="#ff9900" stop-opacity="1"></stop><stop offset="70%" stop-color="#ffc800" stop-opacity="1"></stop></linearGradient></defs><defs><linearGradient id="grad1_2" x1="0%" y1="0%" x2="100%" y2="100%"><stop offset="30%" stop-color="#fff80a" stop-opacity="1"></stop><stop offset="70%" stop-color="#ffc800" stop-opacity="1"></stop></linearGradient></defs><defs><linearGradient id="grad2_0" x1="0%" y1="0%" x2="100%" y2="100%"><stop offset="30%" stop-color="#ff9900" stop-opacity="1"></stop><stop offset="70%" stop-color="#ff9900" stop-opacity="1"></stop></linearGradient></defs><defs><linearGradient id="grad2_1" x1="0%" y1="0%" x2="100%" y2="100%"><stop offset="30%" stop-color="#ffc800" stop-opacity="1"></stop><stop offset="70%" stop-color="#ff9900" stop-opacity="1"></stop></linearGradient></defs><defs><linearGradient id="grad2_2" x1="0%" y1="0%" x2="100%" y2="100%"><stop offset="30%" stop-color="#ffc800" stop-opacity="1"></stop><stop offset="70%" stop-color="#fff80a" stop-opacity="1"></stop></linearGradient></defs><g transform="translate(600, 0)"><path d="M0 513.8C-72.3 512.2 -144.7 510.6 -196.6 474.7C-248.6 438.7 -280.1 368.4 -314.7 314.7C-349.2 260.9 -386.7 223.8 -420.4 174.1C-454 124.4 -483.9 62.2 -513.8 0L0 0Z" fill="#ffe000"></path><path d="M0 342.5C-48.2 341.5 -96.4 340.4 -131.1 316.5C-165.7 292.5 -186.8 245.6 -209.8 209.8C-232.8 174 -257.8 149.2 -280.2 116.1C-302.7 83 -322.6 41.5 -342.5 0L0 0Z" fill="#ffb000"></path><path d="M0 171.3C-24.1 170.7 -48.2 170.2 -65.5 158.2C-82.9 146.2 -93.4 122.8 -104.9 104.9C-116.4 87 -128.9 74.6 -140.1 58C-151.3 41.5 -161.3 20.7 -171.3 0L0 0Z" fill="#ff9900"></path></g><g transform="translate(0, 900)"><path d="M0 -513.8C62 -489.5 124 -465.2 181.8 -438.8C239.6 -412.5 293.2 -384.2 345.1 -345.1C396.9 -305.9 446.9 -255.9 474.7 -196.6C502.5 -137.3 508.1 -68.7 513.8 0L0 0Z" fill="#ffe000"></path><path d="M0 -342.5C41.3 -326.3 82.6 -310.1 121.2 -292.6C159.7 -275 195.5 -256.1 230 -230C264.6 -203.9 297.9 -170.6 316.5 -131.1C335 -91.5 338.8 -45.8 342.5 0L0 0Z" fill="#ffb000"></path><path d="M0 -171.3C20.7 -163.2 41.3 -155.1 60.6 -146.3C79.9 -137.5 97.7 -128.1 115 -115C132.3 -102 149 -85.3 158.2 -65.5C167.5 -45.8 169.4 -22.9 171.3 0L0 0Z" fill="#ff9900"></path></g></svg>