<svg id="visual" viewBox="0 0 900 600" width="900" height="600" xmlns="http://www.w3.org/2000/svg" xmlns:xlink="http://www.w3.org/1999/xlink" version="1.1"><path d="M0 239L15 234C30 229 60 219 90 227.2C120 235.3 150 261.7 180 281.7C210 301.7 240 315.3 270 302.5C300 289.7 330 250.3 360 241.3C390 232.3 420 253.7 450 268.5C480 283.3 510 291.7 540 287.8C570 284 600 268 630 280.7C660 293.3 690 334.7 720 333.2C750 331.7 780 287.3 810 268.3C840 249.3 870 255.7 885 258.8L900 262L900 0L885 0C870 0 840 0 810 0C780 0 750 0 720 0C690 0 660 0 630 0C600 0 570 0 540 0C510 0 480 0 450 0C420 0 390 0 360 0C330 0 300 0 270 0C240 0 210 0 180 0C150 0 120 0 90 0C60 0 30 0 15 0L0 0Z" fill="#313F78" stroke-linecap="round" stroke-linejoin="miter"></path></svg>