<?xml version="1.0" standalone="no"?>
<svg xmlns:xlink="http://www.w3.org/1999/xlink" id="wave" style="transform:rotate(180deg); transition: 0.3s" viewBox="0 0 1440 340" version="1.1" xmlns="http://www.w3.org/2000/svg"><defs><linearGradient id="sw-gradient-0" x1="0" x2="0" y1="1" y2="0"><stop stop-color="rgba(255, 231, 0, 1)" offset="0%"/><stop stop-color="rgba(255, 203.453, 0, 1)" offset="100%"/></linearGradient></defs><path style="transform:translate(0, 0px); opacity:1" fill="url(#sw-gradient-0)" d="M0,204L17.1,209.7C34.3,215,69,227,103,215.3C137.1,204,171,170,206,164.3C240,159,274,181,309,164.3C342.9,147,377,91,411,85C445.7,79,480,125,514,136C548.6,147,583,125,617,102C651.4,79,686,57,720,62.3C754.3,68,789,102,823,141.7C857.1,181,891,227,926,221C960,215,994,159,1029,164.3C1062.9,170,1097,238,1131,226.7C1165.7,215,1200,125,1234,107.7C1268.6,91,1303,147,1337,158.7C1371.4,170,1406,136,1440,141.7C1474.3,147,1509,193,1543,198.3C1577.1,204,1611,170,1646,147.3C1680,125,1714,113,1749,130.3C1782.9,147,1817,193,1851,226.7C1885.7,261,1920,283,1954,272C1988.6,261,2023,215,2057,164.3C2091.4,113,2126,57,2160,34C2194.3,11,2229,23,2263,45.3C2297.1,68,2331,102,2366,124.7C2400,147,2434,159,2451,164.3L2468.6,170L2468.6,340L2451.4,340C2434.3,340,2400,340,2366,340C2331.4,340,2297,340,2263,340C2228.6,340,2194,340,2160,340C2125.7,340,2091,340,2057,340C2022.9,340,1989,340,1954,340C1920,340,1886,340,1851,340C1817.1,340,1783,340,1749,340C1714.3,340,1680,340,1646,340C1611.4,340,1577,340,1543,340C1508.6,340,1474,340,1440,340C1405.7,340,1371,340,1337,340C1302.9,340,1269,340,1234,340C1200,340,1166,340,1131,340C1097.1,340,1063,340,1029,340C994.3,340,960,340,926,340C891.4,340,857,340,823,340C788.6,340,754,340,720,340C685.7,340,651,340,617,340C582.9,340,549,340,514,340C480,340,446,340,411,340C377.1,340,343,340,309,340C274.3,340,240,340,206,340C171.4,340,137,340,103,340C68.6,340,34,340,17,340L0,340Z"/></svg>